<?xml version="1.0" standalone="no"?>
<!DOCTYPE svg PUBLIC "-//W3C//DTD SVG 20010904//EN"
 "http://www.w3.org/TR/2001/REC-SVG-20010904/DTD/svg10.dtd">
<svg version="1.0" xmlns="http://www.w3.org/2000/svg"
 width="1024.000000pt" height="1024.000000pt" viewBox="0 0 1024.000000 1024.000000"
 preserveAspectRatio="xMidYMid meet">

<g transform="translate(0.000000,1024.000000) scale(0.100000,-0.100000)"
fill="#000000" stroke="none">
<path d="M0 5120 l0 -5120 5120 0 5120 0 0 5120 0 5120 -5120 0 -5120 0 0
-5120z m3820 0 l0 -1720 -375 0 -375 0 0 1720 0 1720 375 0 375 0 0 -1720z
m1586 1145 c183 -313 336 -571 341 -572 5 -2 29 34 54 79 42 77 169 296 491
846 l131 222 418 0 c231 0 419 -2 419 -4 0 -3 -26 -47 -58 -98 -33 -51 -120
-190 -194 -308 -74 -118 -242 -386 -373 -595 -131 -209 -283 -451 -337 -538
l-99 -159 52 -81 c29 -45 116 -183 194 -307 78 -124 220 -349 315 -500 96
-151 222 -351 280 -445 59 -93 139 -221 178 -283 40 -63 72 -116 72 -118 0 -2
-192 -3 -427 -2 l-427 3 -131 220 c-72 121 -224 378 -338 570 -113 193 -212
358 -219 368 -12 16 -46 -38 -313 -489 -165 -278 -322 -544 -349 -590 l-48
-84 -419 0 c-231 0 -419 2 -419 5 0 3 203 331 452 728 248 397 491 786 540
864 l89 142 -45 68 c-54 83 -344 547 -741 1188 -62 99 -128 205 -147 235 -20
30 -56 90 -81 133 l-46 77 426 -2 427 -3 332 -570z m4289 -5494 c16 -74 120
-178 198 -197 35 -8 35 -21 -2 -29 -74 -16 -178 -120 -197 -197 -8 -36 -21
-36 -29 1 -16 74 -120 178 -197 197 -36 8 -36 21 1 29 74 16 178 120 197 198
8 35 21 35 29 -2z"/>
</g>
</svg>
